<svg width="56" height="37" viewBox="0 0 56 37" fill="none" xmlns="http://www.w3.org/2000/svg">
<path d="M6.4751 23.125L13.4126 16.1875V37H6.4751V23.125Z" fill="#0A6ED1"/>
<path d="M14.8 5.55005H21.7376V37.0001H14.8V5.55005Z" fill="#67370D"/>
<path d="M14.8 5.55005H21.7376V37.0001H14.8V5.55005Z" fill="black" fill-opacity="0.2"/>
<path d="M23.125 9.25L30.0625 16.1875V37H23.125V9.25Z" fill="#0A6ED1"/>
<path d="M31.4502 21.2751L38.3877 28.2127V37.0002H31.4502V21.2751Z" fill="#0A6ED1"/>
<path d="M52.2627 6.0127L51.5654 6.53418L51.5859 6.95312L52.1592 7.2334L52.9561 6.47461L52.9775 7.07715L52.2627 7.8623L51.1064 7.40039V6.24414L51.7998 5.69922V5.08789H51.3379V3.2373H51.7998V1.84961H6.9375L5.08789 3.7002H0V0H54.1123L55.5 1.84961H52.2627V3.2373H52.7246V5.08789H52.2627V6.0127Z" fill="#67370D"/>
</svg>
